# xmcd CD database file
#
# Track frame offsets:
#	150
#	30720
#	54025
#	77655
#	113045
#	158842
#	196667
#	221950
#	250590
#	274387
#
# Disc length: 4045 seconds
#
# Revision: 0
# Processed by: cddbd v1.5.1PL0 Copyright (c) Steve Scherf et al.
# Submitted via: CDex 1.51
#
DISCID=7f0fcb0a
DTITLE=Sinny Rollins - jazz Giant All Stars Vol.1
DYEAR=1998
DGENRE=Jazz
TTITLE0=St.Thomas
TTITLE1=Paul's Pal
TTITLE2=Strode Rode
TTITLE3=Solitude
TTITLE4=Wagon Wheels
TTITLE5=Sonny Boy
TTITLE6=The Most Beautiful Girl In The World
TTITLE7=There's no Business Like Show Business
TTITLE8=B.Swiff
TTITLE9=You Don't know What Love Is
EXTD=YEAR: 1998
EXTT0=
EXTT1=
EXTT2=
EXTT3=
EXTT4=
EXTT5=
EXTT6=
EXTT7=
EXTT8=
EXTT9=
PLAYORDER=
